<svg version="1.1" viewBox="0.0 0.0 927.3700787401575 451.45931758530185" fill="none" stroke="none" stroke-linecap="square" stroke-miterlimit="10" xmlns:xlink="http://www.w3.org/1999/xlink" xmlns="http://www.w3.org/2000/svg"><clipPath id="p.0"><path d="m0 0l927.37006 0l0 451.45932l-927.37006 0l0 -451.45932z" clip-rule="nonzero"/></clipPath><g clip-path="url(#p.0)"><path fill="#000000" fill-opacity="0.0" d="m0 0l927.37006 0l0 451.45932l-927.37006 0z" fill-rule="evenodd"/><path fill="#000000" fill-opacity="0.0" d="m0 451.4505c42.17454 -25.415497 142.72266 -148.62915 253.04724 -152.49292c110.324585 -3.8637695 297.61682 140.9878 408.90027 129.31027c111.28345 -11.677551 215.66711 -166.14621 258.80054 -199.37546" fill-rule="evenodd"/><path stroke="#980000" stroke-width="4.0" stroke-linejoin="round" stroke-linecap="butt" d="m0 451.4505c42.17454 -25.415466 142.72266 -148.62915 253.04724 -152.49292c110.324615 -3.8637695 297.61682 140.9878 408.90027 129.31027c55.641724 -5.838806 109.55847 -47.375336 154.95654 -91.605835c22.698975 -22.115265 43.26825 -44.904022 60.858765 -64.24078c8.795166 -9.668396 16.845642 -18.47377 24.045227 -25.900467l1.3092651 -1.3447266" fill-rule="evenodd"/><path fill="#980000" stroke="#980000" stroke-width="4.0" stroke-linecap="butt" d="m907.60004 250.02959l8.852234 -17.169678l-17.817688 7.4625854z" fill-rule="evenodd"/></g></svg>